<svg width="75" height="14" viewBox="0 0 75 14" fill="none" xmlns="http://www.w3.org/2000/svg">
<path d="M0.373535 11C0.334473 11 0.314941 10.9805 0.314941 10.9414V10.7656C0.314941 10.7266 0.334473 10.707 0.373535 10.707H0.549316C0.969238 10.707 1.33545 10.6191 1.64795 10.4434C1.7749 10.3701 1.87988 10.2578 1.96289 10.1064C2.0459 9.9502 2.0874 9.77686 2.0874 9.58643V1.8374C2.0874 1.53467 1.89209 1.30273 1.50146 1.1416C1.22803 1.02441 0.9375 0.96582 0.629883 0.96582H0.46875C0.429688 0.96582 0.410156 0.946289 0.410156 0.907227V0.731445C0.410156 0.692383 0.429688 0.672852 0.46875 0.672852H5.42725C5.46631 0.672852 5.48584 0.692383 5.48584 0.731445V0.907227C5.48584 0.946289 5.46631 0.96582 5.42725 0.96582H5.1123C4.60938 0.96582 4.16504 1.03662 3.7793 1.17822C3.66699 1.21729 3.59375 1.2832 3.55957 1.37598C3.53027 1.46387 3.51562 1.61768 3.51562 1.8374V9.95996C3.52539 10.043 3.56934 10.1211 3.64746 10.1943C3.72559 10.2676 3.81348 10.3042 3.91113 10.3042H6.8042C7.23877 10.3042 7.66602 10.0479 8.08594 9.53516C8.19824 9.39844 8.3374 9.21777 8.50342 8.99316C8.66943 8.76367 8.77197 8.63428 8.81104 8.60498C8.96729 8.48779 9.04541 8.49023 9.04541 8.6123C9.04541 8.6416 9.03809 8.6709 9.02344 8.7002L7.91748 10.8682C7.87354 10.9561 7.82227 11 7.76367 11H0.373535ZM10.7959 7.14014C10.7129 7.14014 10.6714 7.31836 10.6714 7.6748C10.6714 8.43164 10.896 9.06641 11.3452 9.5791C11.7944 10.0918 12.3511 10.3481 13.0151 10.3481C13.6841 10.3481 14.3262 10.0601 14.9414 9.48389C14.9512 9.47412 14.9634 9.46924 14.978 9.46924H15.0146C15.0439 9.46924 15.0708 9.49365 15.0952 9.54248C15.1245 9.58643 15.1514 9.61572 15.1758 9.63037C14.6094 10.3188 13.9429 10.7949 13.1763 11.0586C12.9126 11.1514 12.6147 11.1978 12.2827 11.1978C11.9507 11.1978 11.6138 11.1074 11.272 10.9268C10.9302 10.7412 10.6372 10.4995 10.3931 10.2017C9.87549 9.58154 9.6167 8.81006 9.6167 7.88721C9.6167 6.95947 9.89746 6.11475 10.459 5.35303C11.0254 4.59131 11.8018 4.21045 12.7881 4.21045C13.4961 4.21045 14.0747 4.52783 14.5239 5.1626C14.9731 5.79248 15.1978 6.34668 15.1978 6.8252C15.1978 7.03516 15.1465 7.14014 15.0439 7.14014H10.7959ZM10.8765 6.43701C10.8765 6.52979 10.9204 6.57617 11.0083 6.57617H13.7695C13.8965 6.57617 13.96 6.50049 13.96 6.34912C13.96 5.99756 13.8013 5.63867 13.4839 5.27246C13.1714 4.90137 12.8271 4.71582 12.4512 4.71582C12.085 4.71582 11.7505 4.88184 11.4478 5.21387C11.1499 5.5459 10.9595 5.92432 10.8765 6.34912V6.43701ZM20.9546 9.7915C20.9546 9.91846 21.0132 10.021 21.1304 10.0991C21.2524 10.1724 21.3916 10.209 21.5479 10.209C21.7041 10.209 21.8335 10.1699 21.936 10.0918C22.0435 10.0088 22.1167 9.96729 22.1558 9.96729C22.1948 9.96729 22.2144 10.021 22.2144 10.1284C22.2144 10.231 22.1655 10.3188 22.0679 10.3921C21.3354 10.9292 20.8398 11.1978 20.5811 11.1978C20.2686 11.1978 20.0146 10.873 19.8193 10.2236C19.8047 10.1748 19.7925 10.1528 19.7827 10.1577C19.1772 10.6118 18.7964 10.8853 18.6401 10.978C18.2397 11.2075 17.8369 11.2441 17.4316 11.0879C17.0312 10.9316 16.7407 10.6729 16.5601 10.3115C16.4722 10.126 16.4282 9.92822 16.4282 9.71826C16.4282 9.30322 16.582 8.97363 16.8896 8.72949C17.1973 8.48535 17.7832 8.25098 18.6475 8.02637C18.9404 7.94824 19.2017 7.84814 19.4312 7.72607C19.6606 7.604 19.7803 7.52588 19.79 7.4917C19.8047 7.45752 19.812 7.42578 19.812 7.39648V5.99023C19.812 5.43848 19.5972 5.05029 19.1675 4.82568C19.0259 4.75244 18.855 4.71582 18.6548 4.71582C18.4595 4.71582 18.2593 4.79395 18.0542 4.9502C17.854 5.10645 17.7539 5.32861 17.7539 5.6167L17.7905 5.90234C17.7612 5.96094 17.5854 6.05859 17.2632 6.19531C16.9409 6.33203 16.7554 6.40527 16.7065 6.41504C16.6284 6.41504 16.5894 6.32227 16.5894 6.13672C16.5894 5.94629 16.6455 5.73633 16.7578 5.50684C16.8701 5.27734 17.0288 5.06738 17.2339 4.87695C17.7124 4.43262 18.2593 4.21045 18.8745 4.21045C19.4897 4.21045 19.9902 4.38135 20.376 4.72314C20.7617 5.06006 20.9546 5.46289 20.9546 5.93164V9.7915ZM17.5781 9.5791C17.5781 9.81348 17.6685 10.0186 17.8491 10.1943C18.0298 10.3652 18.2349 10.4507 18.4644 10.4507C18.6987 10.4507 18.9819 10.353 19.314 10.1577C19.646 9.95752 19.812 9.75244 19.812 9.54248V8.05566C19.812 8.00195 19.7998 7.9751 19.7754 7.9751C19.751 7.9751 19.7339 7.97754 19.7241 7.98242L18.0249 8.77344C17.8491 8.90039 17.7295 9.00781 17.666 9.0957C17.6074 9.18359 17.5781 9.34473 17.5781 9.5791ZM27.3706 5.74854C27.312 5.73877 27.2266 5.70703 27.1143 5.65332C26.709 5.46777 26.3916 5.375 26.1621 5.375C25.9326 5.375 25.6909 5.51904 25.437 5.80713C25.188 6.09033 25.0635 6.34668 25.0635 6.57617V9.88672C25.0635 10.2529 25.2759 10.4971 25.7007 10.6191C25.8862 10.668 26.0596 10.7046 26.2207 10.729C26.3818 10.7485 26.4844 10.7681 26.5283 10.7876C26.5771 10.8071 26.6016 10.8462 26.6016 10.9048C26.6016 10.9585 26.5771 10.9902 26.5283 11H22.8589C22.8101 10.9902 22.7856 10.9561 22.7856 10.8975C22.7856 10.8096 22.9004 10.751 23.1299 10.7217C23.6572 10.6436 23.9209 10.3652 23.9209 9.88672V6.01221C23.9209 5.80713 23.8086 5.66553 23.584 5.5874C23.4863 5.55322 23.3813 5.52637 23.269 5.50684C23.1567 5.48242 23.0664 5.46045 22.998 5.44092C22.9346 5.42139 22.8931 5.4043 22.8735 5.38965C22.8589 5.37012 22.8516 5.3335 22.8516 5.27979C22.8516 5.22119 22.8882 5.17236 22.9614 5.1333L24.8291 4.25439C24.8877 4.2251 24.9243 4.21045 24.939 4.21045C25.022 4.21045 25.0635 4.26904 25.0635 4.38623V5.57275C25.0635 5.63135 25.0781 5.66064 25.1074 5.66064C25.1465 5.66064 25.2466 5.5459 25.4077 5.31641C25.8716 4.66699 26.2549 4.34229 26.5576 4.34229C26.7285 4.34229 26.9897 4.41064 27.3413 4.54736C27.6978 4.68408 27.876 4.79883 27.876 4.8916C27.876 5.00391 27.8198 5.1748 27.7075 5.4043C27.5952 5.63379 27.4829 5.74854 27.3706 5.74854ZM33.772 8.69287L33.7573 7.14746C33.7573 6.51758 33.7036 6.07568 33.5962 5.82178C33.4888 5.56787 33.3521 5.37744 33.186 5.25049C33.02 5.11865 32.7954 5.05273 32.5122 5.05273C32.2339 5.05273 31.6406 5.27246 30.7324 5.71191C30.6104 5.78516 30.5469 5.85352 30.542 5.91699V9.85742C30.542 10.3506 30.8057 10.6338 31.333 10.707C31.5625 10.7412 31.6772 10.7974 31.6772 10.8755C31.6772 10.9487 31.6528 10.9902 31.604 11H28.3374C28.2886 10.9902 28.2642 10.9561 28.2642 10.8975C28.2642 10.8047 28.3789 10.7412 28.6084 10.707C29.1357 10.6338 29.3994 10.3506 29.3994 9.85742V5.65332C29.3994 5.44824 29.2871 5.30664 29.0625 5.22852C28.9648 5.19434 28.8599 5.16748 28.7476 5.14795C28.6353 5.12354 28.5449 5.10156 28.4766 5.08203C28.4131 5.0625 28.3716 5.04541 28.3521 5.03076C28.3374 5.01123 28.3301 4.97461 28.3301 4.9209C28.3301 4.8623 28.3667 4.81348 28.4399 4.77441L30.3076 3.89551C30.3662 3.86621 30.4028 3.85156 30.4175 3.85156C30.5005 3.85156 30.542 3.91016 30.542 4.02734V5.16992C30.5566 5.21875 30.5762 5.24316 30.6006 5.24316C30.6299 5.24316 30.7349 5.19922 30.9155 5.11133C31.3354 4.90137 31.7578 4.69873 32.1826 4.50342C32.6074 4.30811 32.959 4.21045 33.2373 4.21045C34.3652 4.21045 34.9292 5.23828 34.9292 7.29395L34.8633 9.43262V9.85742C34.8633 10.2383 35.0537 10.4873 35.4346 10.6045C35.5957 10.6582 35.7495 10.6973 35.896 10.7217C36.0474 10.7412 36.145 10.7607 36.189 10.7803C36.2378 10.7998 36.2622 10.8389 36.2622 10.8975C36.2622 10.9561 36.2378 10.9902 36.189 11H32.6587C32.6099 10.9902 32.5854 10.9561 32.5854 10.8975C32.5854 10.8047 32.7002 10.7412 32.9297 10.707C33.4521 10.6338 33.7134 10.3311 33.7134 9.79883C33.7524 9.55469 33.772 9.18604 33.772 8.69287ZM44.1064 10.707C44.1357 10.707 44.1504 10.7266 44.1504 10.7656V10.9414C44.1504 10.9805 44.1357 11 44.1064 11H40.686C40.647 11 40.6274 10.9805 40.6274 10.9414V10.7656C40.6274 10.7266 40.647 10.707 40.686 10.707C41.4868 10.707 41.9214 10.3628 41.9897 9.67432C42.0093 9.47412 42.0288 9.14209 42.0483 8.67822C42.0728 8.20947 42.1387 7.20605 42.2461 5.66797C42.3535 4.125 42.4072 2.87744 42.4072 1.92529V1.6543C42.4072 1.45898 42.2949 1.29541 42.0703 1.16357C41.8506 1.03174 41.6895 0.96582 41.5869 0.96582C41.4844 0.96582 41.4331 0.946289 41.4331 0.907227V0.731445C41.4331 0.692383 41.4526 0.672852 41.4917 0.672852H43.6084C43.7012 0.6875 43.7769 0.741211 43.8354 0.833984L47.2705 8.48779C47.2949 8.52197 47.3145 8.55127 47.3291 8.57568C47.3438 8.6001 47.3804 8.6123 47.439 8.6123C47.4976 8.60742 47.5415 8.56348 47.5708 8.48047L50.9692 0.96582C51.0718 0.770508 51.1646 0.672852 51.2476 0.672852H53.3789C53.418 0.672852 53.4375 0.692383 53.4375 0.731445V0.907227C53.4375 0.946289 53.4253 0.96582 53.4009 0.96582C53.2544 0.96582 53.0737 1.01465 52.8589 1.1123C52.5317 1.25879 52.3682 1.47607 52.3682 1.76416L52.8076 9.85742C52.8174 10.1113 52.9492 10.3164 53.2031 10.4727C53.457 10.6289 53.7891 10.707 54.1992 10.707C54.2383 10.707 54.2578 10.7266 54.2578 10.7656V10.9414C54.2578 10.9805 54.2383 11 54.1992 11H50.0391C50 11 49.9805 10.9805 49.9805 10.9414V10.7656C49.9805 10.7266 50 10.707 50.0391 10.707C50.9131 10.707 51.3501 10.4946 51.3501 10.0698L50.9619 3.0752C50.957 3.02637 50.9424 3.00195 50.918 3.00195C50.8984 3.00195 50.8813 3.02393 50.8667 3.06787L47.2266 10.9487C47.207 10.9829 47.1509 11 47.0581 11C46.9653 11 46.9116 10.9805 46.897 10.9414L43.3081 3.0459C43.2788 2.97754 43.2495 2.94336 43.2202 2.94336C43.1958 2.94336 43.1836 2.99707 43.1836 3.10449C43.1836 3.3291 43.125 4.38867 43.0078 6.2832C42.8906 8.17773 42.832 9.35938 42.832 9.82812V10.1284C42.8906 10.4067 43.1665 10.5874 43.6597 10.6704C43.8013 10.6948 43.9502 10.707 44.1064 10.707ZM55.1221 7.71143C55.1221 6.74951 55.4614 5.92432 56.1401 5.23584C56.8237 4.54248 57.6416 4.1958 58.5938 4.1958C59.5459 4.1958 60.3735 4.53271 61.0767 5.20654C61.7798 5.87549 62.1313 6.70312 62.1313 7.68945C62.1313 8.67578 61.7969 9.5083 61.1279 10.187C60.4639 10.8608 59.6289 11.1978 58.623 11.1978C57.6172 11.1978 56.7822 10.856 56.1182 10.1724C55.4541 9.48877 55.1221 8.66846 55.1221 7.71143ZM56.9458 9.59375C57.4243 10.3994 58.0762 10.8022 58.9014 10.8022C59.541 10.8022 60.0293 10.5459 60.3662 10.0332C60.708 9.52051 60.8789 8.89062 60.8789 8.14355C60.8789 7.39648 60.6396 6.62988 60.1611 5.84375C59.6875 5.05762 59.0479 4.66455 58.2422 4.66455C57.6514 4.66455 57.1851 4.9209 56.8433 5.43359C56.5063 5.94141 56.3379 6.58838 56.3379 7.37451C56.3379 8.15576 56.5405 8.89551 56.9458 9.59375ZM67.6538 5.74854C67.5952 5.73877 67.5098 5.70703 67.3975 5.65332C66.9922 5.46777 66.6748 5.375 66.4453 5.375C66.2158 5.375 65.9741 5.51904 65.7202 5.80713C65.4712 6.09033 65.3467 6.34668 65.3467 6.57617V9.88672C65.3467 10.2529 65.5591 10.4971 65.9839 10.6191C66.1694 10.668 66.3428 10.7046 66.5039 10.729C66.665 10.7485 66.7676 10.7681 66.8115 10.7876C66.8604 10.8071 66.8848 10.8462 66.8848 10.9048C66.8848 10.9585 66.8604 10.9902 66.8115 11H63.1421C63.0933 10.9902 63.0688 10.9561 63.0688 10.8975C63.0688 10.8096 63.1836 10.751 63.4131 10.7217C63.9404 10.6436 64.2041 10.3652 64.2041 9.88672V6.01221C64.2041 5.80713 64.0918 5.66553 63.8672 5.5874C63.7695 5.55322 63.6646 5.52637 63.5522 5.50684C63.4399 5.48242 63.3496 5.46045 63.2812 5.44092C63.2178 5.42139 63.1763 5.4043 63.1567 5.38965C63.1421 5.37012 63.1348 5.3335 63.1348 5.27979C63.1348 5.22119 63.1714 5.17236 63.2446 5.1333L65.1123 4.25439C65.1709 4.2251 65.2075 4.21045 65.2222 4.21045C65.3052 4.21045 65.3467 4.26904 65.3467 4.38623V5.57275C65.3467 5.63135 65.3613 5.66064 65.3906 5.66064C65.4297 5.66064 65.5298 5.5459 65.6909 5.31641C66.1548 4.66699 66.5381 4.34229 66.8408 4.34229C67.0117 4.34229 67.2729 4.41064 67.6245 4.54736C67.981 4.68408 68.1592 4.79883 68.1592 4.8916C68.1592 5.00391 68.103 5.1748 67.9907 5.4043C67.8784 5.63379 67.7661 5.74854 67.6538 5.74854ZM69.8584 7.14014C69.7754 7.14014 69.7339 7.31836 69.7339 7.6748C69.7339 8.43164 69.9585 9.06641 70.4077 9.5791C70.8569 10.0918 71.4136 10.3481 72.0776 10.3481C72.7466 10.3481 73.3887 10.0601 74.0039 9.48389C74.0137 9.47412 74.0259 9.46924 74.0405 9.46924H74.0771C74.1064 9.46924 74.1333 9.49365 74.1577 9.54248C74.187 9.58643 74.2139 9.61572 74.2383 9.63037C73.6719 10.3188 73.0054 10.7949 72.2388 11.0586C71.9751 11.1514 71.6772 11.1978 71.3452 11.1978C71.0132 11.1978 70.6763 11.1074 70.3345 10.9268C69.9927 10.7412 69.6997 10.4995 69.4556 10.2017C68.938 9.58154 68.6792 8.81006 68.6792 7.88721C68.6792 6.95947 68.96 6.11475 69.5215 5.35303C70.0879 4.59131 70.8643 4.21045 71.8506 4.21045C72.5586 4.21045 73.1372 4.52783 73.5864 5.1626C74.0356 5.79248 74.2603 6.34668 74.2603 6.8252C74.2603 7.03516 74.209 7.14014 74.1064 7.14014H69.8584ZM69.939 6.43701C69.939 6.52979 69.9829 6.57617 70.0708 6.57617H72.832C72.959 6.57617 73.0225 6.50049 73.0225 6.34912C73.0225 5.99756 72.8638 5.63867 72.5464 5.27246C72.2339 4.90137 71.8896 4.71582 71.5137 4.71582C71.1475 4.71582 70.813 4.88184 70.5103 5.21387C70.2124 5.5459 70.022 5.92432 69.939 6.34912V6.43701Z" fill="black"/>
<path d="M0.0219727 12.5015H74.978V13.2339H0.0219727V12.5015Z" fill="black"/>
</svg>
